<svg width="120" height="26" viewBox="0 0 120 26" fill="none" xmlns="http://www.w3.org/2000/svg">
<path d="M114.266 19.8195H111.12V7.39343C111.12 6.94777 110.727 6.55454 110.281 6.55454H105.379V3.40869H110.281C111.147 3.40869 111.985 3.69706 112.693 4.22137C113.401 3.69706 114.24 3.40869 115.105 3.40869H120.007V6.55454H115.105C114.659 6.55454 114.266 6.94777 114.266 7.39343V19.8195Z" fill="#4EA674"/>
<path d="M97.5825 14.5502H93.5191V19.8195H90.3733V7.39343C90.3733 5.19134 92.1559 3.40869 94.358 3.40869H98.9195C101.987 3.40869 104.503 5.89916 104.503 8.96636C104.503 11.0898 103.297 13.0035 101.436 13.9473L104.87 19.8195H101.226L98.5787 15.2581C98.3166 14.8124 98.133 14.6027 97.5825 14.5502ZM93.5191 11.4044H98.9195C100.256 11.4044 101.358 10.3033 101.358 8.96636C101.358 7.65559 100.256 6.55454 98.9195 6.55454H94.358C93.9124 6.55454 93.5191 6.94777 93.5191 7.39343V11.4044Z" fill="#4EA674"/>
<path d="M56.3772 19.8195V7.39343C56.3772 5.19134 58.1598 3.40869 60.3619 3.40869H64.2418C67.676 3.40869 70.5073 6.21374 70.5073 9.67417C70.5073 13.1084 67.676 15.9397 64.2418 15.9397H59.523V19.8195H56.3772ZM64.2418 12.7938C65.9458 12.7938 67.3614 11.3782 67.3614 9.67417C67.3614 7.97017 65.9458 6.55454 64.2418 6.55454H60.3619C59.9163 6.55454 59.523 6.94777 59.523 7.39343V12.7938H64.2418Z" fill="#4EA674"/>
<path d="M42.5315 3.40869H45.6773V15.8348C45.6773 16.2805 46.0706 16.6737 46.5162 16.6737H54.9576V19.8195H46.5162C44.3141 19.8195 42.5315 18.0369 42.5315 15.8348V3.40869Z" fill="#4EA674"/>
<path d="M19.8385 19.8197C17.6364 19.8197 15.8538 18.0371 15.8538 15.835V7.39363C15.8538 5.19154 17.6364 3.40889 19.8385 3.40889H28.2799V6.55474H19.8385C19.3928 6.55474 18.9996 6.94797 18.9996 7.39363V9.7268H26.7594V12.8727H18.9996V15.835C18.9996 16.2807 19.3928 16.6739 19.8385 16.6739H24.8456C29.4071 16.6739 32.2384 8.83548 34.1521 5.24397C34.9386 3.69726 36.7474 2.77972 38.4514 3.17295C40.103 3.56619 41.1254 5.03425 41.1254 6.73825V19.8197H37.9796V15.7039H31.9762C30.1674 18.0633 27.9128 19.8197 24.8456 19.8197C23.1679 19.8197 21.5163 19.8197 19.8385 19.8197ZM37.9796 12.5581V6.73825C37.9796 5.87314 37.2193 6.18773 36.9047 6.76446C35.8823 8.67819 35.0172 10.6443 33.9686 12.5581H37.9796Z" fill="#4EA674"/>
<path d="M0.00415039 19.8195V7.39343C0.00415039 5.19134 1.7868 3.40869 3.98889 3.40869H6.03369C11.0146 3.40869 14.5275 6.73805 14.5537 11.6403C14.5537 15.9659 11.67 19.8195 7.08231 19.8195H0.00415039ZM3.12378 7.39343V16.6737H7.08231C9.86114 16.6737 11.4078 14.1832 11.4078 11.6403C11.4078 8.49448 9.20576 6.55454 6.03369 6.55454H3.98889C3.54323 6.55454 3.12378 6.94777 3.12378 7.39343Z" fill="#4EA674"/>
<path d="M78.96 16.9307C79.231 16.93 79.4562 17.0236 79.6533 17.2207C79.8504 17.4178 79.9433 17.6427 79.9424 17.9131C79.9414 18.1855 79.8479 18.4124 79.6523 18.6104C79.459 18.8061 79.2348 18.8997 78.9609 18.8984H78.959C78.6862 18.8984 78.461 18.8046 78.2656 18.6094C78.0701 18.4138 77.9759 18.1878 77.9756 17.9141C77.9753 17.641 78.0687 17.4156 78.2646 17.2207C78.4615 17.025 78.6877 16.9313 78.96 16.9307ZM85.5166 16.9307C85.7876 16.9301 86.0129 17.0236 86.21 17.2207C86.407 17.4178 86.5 17.6428 86.499 17.9131C86.498 18.1854 86.4044 18.4124 86.209 18.6104C86.0155 18.8061 85.7906 18.8998 85.5166 18.8984H85.5156C85.2426 18.8984 85.0168 18.8049 84.8213 18.6094C84.6258 18.4138 84.5326 18.1878 84.5322 17.9141C84.5319 17.641 84.6254 17.4156 84.8213 17.2207C85.018 17.0251 85.2444 16.9313 85.5166 16.9307ZM76.9492 6.44141L77.4824 7.56543L77.5723 7.75195H88.041L85.1416 12.9971H79.4863L79.3936 13.167L78.6719 14.4785L78.4043 14.9639H86.499V15.6201H77.3008L78.9844 12.5654L79.0654 12.4189L78.9932 12.2666L76.6328 7.28418L76.5439 7.09668H75.3535V6.44141H76.9492Z" fill="#4EA674" stroke="#4EA674" stroke-width="0.655624"/>
<path d="M71.8613 9.04883H76.3851" stroke="#4EA674" stroke-width="0.452381" stroke-linecap="round"/>
<path d="M73.2207 11.3125H76.8398" stroke="#4EA674" stroke-width="0.452381" stroke-linecap="round"/>
<path d="M71.4082 13.5742H76.8368" stroke="#4EA674" stroke-width="0.452381" stroke-linecap="round"/>
</svg>
